<svg width="304" height="80" viewBox="0 0 304 80" fill="none" xmlns="http://www.w3.org/2000/svg">
<g filter="url(#filter0_b_8415_4)">
<path d="M0 0H304V60C304 71.0457 295.046 80 284 80H20C8.9543 80 0 71.0457 0 60V0Z" fill="url(#paint0_linear_8415_4)"/>
<circle cx="44" cy="40" r="16" fill="#D9D9D9"/>
<path d="M80.6399 41.5H78.3331L81.848 31.3182H84.6222L88.1321 41.5H85.8253L83.2749 33.6449H83.1953L80.6399 41.5ZM80.4957 37.4979H85.9446V39.1783H80.4957V37.4979ZM89.3576 41.5V31.3182H91.5103V39.7251H95.8754V41.5H89.3576ZM97.301 41.5V31.3182H104.162V33.093H99.4537V35.5192H103.809V37.294H99.4537V39.7251H104.182V41.5H97.301ZM107.892 31.3182L109.945 34.7884H110.025L112.088 31.3182H114.519L111.412 36.4091L114.588 41.5H112.113L110.025 38.0249H109.945L107.857 41.5H105.391L108.578 36.4091L105.451 31.3182H107.892ZM125.873 34.6094C125.803 34.3674 125.705 34.1536 125.579 33.968C125.453 33.7791 125.299 33.62 125.117 33.4908C124.938 33.3582 124.733 33.2571 124.501 33.1875C124.272 33.1179 124.018 33.0831 123.74 33.0831C123.22 33.0831 122.762 33.2124 122.368 33.4709C121.977 33.7294 121.672 34.1056 121.453 34.5994C121.234 35.09 121.125 35.6899 121.125 36.3991C121.125 37.1084 121.233 37.7116 121.448 38.2088C121.663 38.706 121.968 39.0855 122.363 39.3473C122.757 39.6058 123.223 39.7351 123.76 39.7351C124.247 39.7351 124.663 39.6489 125.008 39.4766C125.356 39.3009 125.621 39.054 125.803 38.7358C125.989 38.4176 126.081 38.0414 126.081 37.6072L126.519 37.6719H123.894V36.0511H128.155V37.3338C128.155 38.2287 127.966 38.9976 127.588 39.6406C127.21 40.2803 126.69 40.7741 126.027 41.1222C125.364 41.4669 124.605 41.6392 123.75 41.6392C122.795 41.6392 121.957 41.4287 121.234 41.0078C120.512 40.5836 119.948 39.982 119.544 39.2031C119.143 38.4209 118.942 37.4929 118.942 36.419C118.942 35.5937 119.062 34.858 119.3 34.2116C119.542 33.562 119.88 33.0118 120.314 32.5611C120.749 32.1103 121.254 31.7673 121.831 31.532C122.407 31.2966 123.032 31.179 123.705 31.179C124.282 31.179 124.819 31.2635 125.316 31.4325C125.813 31.5982 126.254 31.8336 126.638 32.1385C127.026 32.4434 127.343 32.8063 127.588 33.2273C127.833 33.6449 127.991 34.1056 128.06 34.6094H125.873ZM129.772 41.5V31.3182H136.632V33.093H131.924V35.5192H136.279V37.294H131.924V39.7251H136.652V41.5H129.772ZM147.7 36.4091C147.7 37.5194 147.49 38.464 147.069 39.2429C146.651 40.0218 146.081 40.6167 145.359 41.0277C144.64 41.4354 143.831 41.6392 142.933 41.6392C142.028 41.6392 141.216 41.4337 140.497 41.0227C139.777 40.6117 139.209 40.0168 138.791 39.2379C138.374 38.459 138.165 37.5161 138.165 36.4091C138.165 35.2988 138.374 34.3542 138.791 33.5753C139.209 32.7964 139.777 32.2031 140.497 31.7955C141.216 31.3845 142.028 31.179 142.933 31.179C143.831 31.179 144.64 31.3845 145.359 31.7955C146.081 32.2031 146.651 32.7964 147.069 33.5753C147.49 34.3542 147.7 35.2988 147.7 36.4091ZM145.518 36.4091C145.518 35.6899 145.41 35.0833 145.195 34.5895C144.983 34.0956 144.683 33.7211 144.295 33.4659C143.907 33.2107 143.453 33.0831 142.933 33.0831C142.412 33.0831 141.958 33.2107 141.57 33.4659C141.183 33.7211 140.881 34.0956 140.666 34.5895C140.454 35.0833 140.347 35.6899 140.347 36.4091C140.347 37.1283 140.454 37.7348 140.666 38.2287C140.881 38.7225 141.183 39.0971 141.57 39.3523C141.958 39.6075 142.412 39.7351 142.933 39.7351C143.453 39.7351 143.907 39.6075 144.295 39.3523C144.683 39.0971 144.983 38.7225 145.195 38.2287C145.41 37.7348 145.518 37.1283 145.518 36.4091ZM149.295 41.5V31.3182H153.312C154.081 31.3182 154.737 31.4557 155.281 31.7308C155.828 32.0026 156.244 32.3887 156.529 32.8892C156.817 33.3864 156.961 33.9714 156.961 34.6442C156.961 35.3203 156.815 35.902 156.524 36.3892C156.232 36.8731 155.81 37.2443 155.256 37.5028C154.706 37.7614 154.04 37.8906 153.257 37.8906H150.568V36.1605H152.909C153.32 36.1605 153.662 36.1042 153.934 35.9915C154.205 35.8788 154.408 35.7098 154.54 35.4844C154.676 35.259 154.744 34.9789 154.744 34.6442C154.744 34.3061 154.676 34.0211 154.54 33.7891C154.408 33.5571 154.204 33.3814 153.929 33.2621C153.657 33.1394 153.314 33.0781 152.9 33.0781H151.448V41.5H149.295ZM154.794 36.8665L157.324 41.5H154.948L152.472 36.8665H154.794ZM165.234 34.6094C165.164 34.3674 165.067 34.1536 164.941 33.968C164.815 33.7791 164.661 33.62 164.478 33.4908C164.299 33.3582 164.094 33.2571 163.862 33.1875C163.633 33.1179 163.38 33.0831 163.101 33.0831C162.581 33.0831 162.123 33.2124 161.729 33.4709C161.338 33.7294 161.033 34.1056 160.814 34.5994C160.596 35.09 160.486 35.6899 160.486 36.3991C160.486 37.1084 160.594 37.7116 160.809 38.2088C161.025 38.706 161.33 39.0855 161.724 39.3473C162.118 39.6058 162.584 39.7351 163.121 39.7351C163.608 39.7351 164.024 39.6489 164.369 39.4766C164.717 39.3009 164.982 39.054 165.164 38.7358C165.35 38.4176 165.443 38.0414 165.443 37.6072L165.88 37.6719H163.255V36.0511H167.516V37.3338C167.516 38.2287 167.327 38.9976 166.949 39.6406C166.571 40.2803 166.051 40.7741 165.388 41.1222C164.725 41.4669 163.966 41.6392 163.111 41.6392C162.157 41.6392 161.318 41.4287 160.596 41.0078C159.873 40.5836 159.31 39.982 158.905 39.2031C158.504 38.4209 158.304 37.4929 158.304 36.419C158.304 35.5937 158.423 34.858 158.662 34.2116C158.904 33.562 159.242 33.0118 159.676 32.5611C160.11 32.1103 160.615 31.7673 161.192 31.532C161.769 31.2966 162.394 31.179 163.066 31.179C163.643 31.179 164.18 31.2635 164.677 31.4325C165.174 31.5982 165.615 31.8336 166 32.1385C166.387 32.4434 166.704 32.8063 166.949 33.2273C167.194 33.6449 167.352 34.1056 167.422 34.6094H165.234ZM169.133 41.5V31.3182H175.994V33.093H171.286V35.5192H175.641V37.294H171.286V39.7251H176.014V41.5H169.133Z" fill="white"/>
<path d="M80.34 50.572C79.062 50.572 78.234 49.684 78.234 48.31C78.234 46.948 79.092 46.042 80.376 46.042C81.414 46.042 82.188 46.648 82.338 47.59H81.528C81.378 47.08 80.94 46.78 80.358 46.78C79.548 46.78 79.038 47.368 79.038 48.304C79.038 49.234 79.554 49.834 80.358 49.834C80.952 49.834 81.408 49.522 81.552 49.036H82.35C82.182 49.96 81.378 50.572 80.34 50.572ZM86.9627 50.5H84.2387V46.114H86.9627V46.822H85.0067V47.95H86.7587V48.628H85.0067V49.792H86.9627V50.5ZM92.9974 48.304C92.9974 49.636 92.1214 50.572 90.8614 50.572C89.6074 50.572 88.7434 49.642 88.7434 48.304C88.7434 46.972 89.6134 46.036 90.8674 46.036C92.1214 46.036 92.9974 46.966 92.9974 48.304ZM92.1874 48.304C92.1874 47.368 91.6714 46.774 90.8674 46.774C90.0634 46.774 89.5474 47.368 89.5474 48.304C89.5474 49.24 90.0634 49.834 90.8674 49.834C91.6714 49.834 92.1874 49.228 92.1874 48.304ZM95.5126 50.236C95.5126 50.734 95.1526 51.13 94.6666 51.19V50.896C94.9366 50.848 95.1406 50.686 95.1406 50.476C95.0926 50.5 95.0386 50.512 94.9666 50.512C94.7326 50.512 94.5406 50.338 94.5406 50.098C94.5406 49.81 94.7266 49.618 94.9966 49.618C95.2966 49.618 95.5126 49.864 95.5126 50.236ZM102.14 48.988H101.174V50.5H100.406V46.114H102.14C103.022 46.114 103.592 46.69 103.592 47.548C103.592 48.394 103.016 48.988 102.14 48.988ZM101.99 46.798H101.174V48.304H101.978C102.506 48.304 102.788 48.022 102.788 47.542C102.788 47.062 102.5 46.798 101.99 46.798ZM109.44 48.304C109.44 49.636 108.564 50.572 107.304 50.572C106.05 50.572 105.186 49.642 105.186 48.304C105.186 46.972 106.056 46.036 107.31 46.036C108.564 46.036 109.44 46.966 109.44 48.304ZM108.63 48.304C108.63 47.368 108.114 46.774 107.31 46.774C106.506 46.774 105.99 47.368 105.99 48.304C105.99 49.24 106.506 49.834 107.31 49.834C108.114 49.834 108.63 49.228 108.63 48.304ZM112.123 46.114V49.792H113.959V50.5H111.355V46.114H112.123ZM116.382 48.772L114.9 46.114H115.758L116.622 47.71C116.688 47.83 116.73 47.926 116.778 48.034C116.832 47.926 116.856 47.854 116.934 47.71L117.792 46.114H118.626L117.15 48.772V50.5H116.382V48.772ZM121.956 46.762C121.086 46.762 120.588 47.392 120.588 48.34C120.588 49.318 121.152 49.852 121.962 49.852C122.724 49.852 123.186 49.432 123.186 48.73V48.712H121.86V48.034H123.9V50.5H123.252L123.204 49.996C122.964 50.332 122.466 50.566 121.872 50.566C120.642 50.566 119.784 49.672 119.784 48.322C119.784 46.99 120.654 46.042 121.974 46.042C122.976 46.042 123.75 46.624 123.876 47.518H123.066C122.928 47.002 122.484 46.762 121.956 46.762ZM129.931 48.304C129.931 49.636 129.055 50.572 127.795 50.572C126.541 50.572 125.677 49.642 125.677 48.304C125.677 46.972 126.547 46.036 127.801 46.036C129.055 46.036 129.931 46.966 129.931 48.304ZM129.121 48.304C129.121 47.368 128.605 46.774 127.801 46.774C126.997 46.774 126.481 47.368 126.481 48.304C126.481 49.24 126.997 49.834 127.801 49.834C128.605 49.834 129.121 49.228 129.121 48.304ZM132.602 50.5H131.846V46.114H132.608L134.666 49.222V46.114H135.422V50.5H134.666L132.602 47.392V50.5Z" fill="#8D96B2"/>
</g>
<defs>
<filter id="filter0_b_8415_4" x="-300" y="-300" width="904" height="680" filterUnits="userSpaceOnUse" color-interpolation-filters="sRGB">
<feFlood flood-opacity="0" result="BackgroundImageFix"/>
<feGaussianBlur in="BackgroundImageFix" stdDeviation="150"/>
<feComposite in2="SourceAlpha" operator="in" result="effect1_backgroundBlur_8415_4"/>
<feBlend mode="normal" in="SourceGraphic" in2="effect1_backgroundBlur_8415_4" result="shape"/>
</filter>
<linearGradient id="paint0_linear_8415_4" x1="140.174" y1="-189.841" x2="403.943" y2="-137.682" gradientUnits="userSpaceOnUse">
<stop stop-color="#D9D9D9" stop-opacity="0.07"/>
<stop offset="0.990529" stop-color="#D9D9D9" stop-opacity="0.05"/>
</linearGradient>
</defs>
</svg>
